<svg width="60" height="60" viewBox="0 0 60 60" fill="none" xmlns="http://www.w3.org/2000/svg">
<path d="M40.55 40.5499C45.625 35.475 48.325 28.75 48.625 20.5C45.9 26.525 42.025 32.025 37.025 37.025C32.025 42.025 26.525 45.9 20.5 48.625C28.75 48.4 35.4 45.7 40.55 40.5499ZM19.45 19.45C14.375 24.525 11.675 31.25 11.375 39.5C12.5 37 14.25 34.125 16.525 30.875C18.75 27.625 20.95 25 22.975 22.975C27.975 17.975 33.475 14.1 39.5 11.375C31.25 11.6 24.6 14.3 19.45 19.45ZM51.25 8.74995C52.5 10.125 53.35 12.775 53.675 16.75C53.975 20.75 53.375 25.4 51.85 30.75C50.325 36.125 47.775 40.575 44.175 44.175C40.9 47.5 37 49.8749 32.5 51.3749C28.025 52.8999 23.6 53.6749 19.225 53.6749C13.9 53.6749 10.425 52.8499 8.75001 51.25C7.50001 49.875 6.65001 47.2249 6.32501 43.25C6.02501 39.25 6.62501 34.6 8.15001 29.25C9.67501 23.875 12.225 19.425 15.825 15.825C19.1 12.5 23 10.125 27.5 8.62495C31.975 7.09995 36.4 6.32495 40.775 6.32495C46.1 6.32495 49.575 7.14995 51.25 8.74995Z" fill="white"/>
</svg>
