<svg width="60" height="60" viewBox="0 0 60 60" fill="none" xmlns="http://www.w3.org/2000/svg">
<path d="M30.7008 53.8845C30.2214 52.2723 30.7576 50.2549 32.3611 49.069C33.592 48.1587 35.0561 47.863 36.2881 48.1556C36.4499 48.1941 36.6227 48.1538 36.7403 48.0361C36.8966 47.8799 36.9149 47.6329 36.7836 47.4553L36.5489 47.138C35.0202 45.0708 35.7828 41.9103 38.2485 40.0514C37.8898 39.8072 37.4939 39.5448 37.0723 39.2688L36.6265 38.9778C36.0921 38.6294 35.5315 38.264 35.0258 37.9162C33.5735 38.8399 31.8499 39.375 30.0012 39.375C27.2684 39.375 24.8088 38.2057 23.0952 36.3402C22.0776 36.893 20.8869 37.449 19.6594 37.9274C17.6573 38.7076 15.3214 39.375 13.3307 39.375C10.7533 39.375 8.09486 38.259 6.03186 37.1272C9.10023 47.462 18.6704 55 30.0012 55C30.5346 55 30.8528 54.3957 30.7008 53.8845Z" fill="white"/>
<path d="M24.3762 30C24.3762 26.8934 26.8946 24.375 30.0012 24.375C33.1078 24.375 35.6262 26.8934 35.6262 30C35.6262 31.5677 34.9849 32.9856 33.9503 34.0057C33.8217 34.0928 33.7019 34.1974 33.5945 34.3194L33.5688 34.3491C32.598 35.1464 31.3555 35.625 30.0012 35.625C26.8946 35.625 24.3762 33.1066 24.3762 30Z" fill="white"/>
<path fill-rule="evenodd" clip-rule="evenodd" d="M48.6979 36.9874C50.4664 35.6794 52.7164 35.6402 54.0676 36.792C54.6758 34.6323 55.0012 32.3542 55.0012 30C55.0012 25.0546 53.5653 20.4447 51.0876 16.5642L48.826 18.8258C48.0938 19.5581 46.9066 19.5581 46.1744 18.8258C45.4422 18.0936 45.4422 16.9064 46.1744 16.1742L48.6744 13.6742C48.7213 13.6273 48.7701 13.5833 48.8205 13.5424C44.238 8.30664 37.5058 5 30.0012 5C25.0559 5 20.4459 6.43593 16.5655 8.91359L18.826 11.1742C19.5583 11.9064 19.5583 13.0936 18.826 13.8258C18.0938 14.5581 16.9066 14.5581 16.1744 13.8258L13.6744 11.3258C13.6278 11.2792 13.5842 11.2308 13.5435 11.1808C8.30781 15.7633 5.00122 22.4955 5.00122 30C5.00122 30.7109 5.03091 31.4149 5.08909 32.1108C5.62996 32.4944 6.2991 32.9425 7.04889 33.3891C9.09562 34.6083 11.4311 35.625 13.3307 35.625C14.6212 35.625 16.4384 35.1579 18.2977 34.4333C19.3489 34.0237 20.3372 33.5621 21.1592 33.1236C20.814 32.1466 20.6262 31.0952 20.6262 30C20.6262 24.8223 24.8236 20.625 30.0012 20.625C35.1789 20.625 39.3762 24.8223 39.3762 30C39.3762 31.9429 38.7852 33.7477 37.7732 35.2446C38.0586 35.4334 38.3708 35.6374 38.7036 35.8549L39.1263 36.1313C40.3193 36.9124 41.7831 37.8802 42.577 38.6741C42.6098 38.7068 42.641 38.7405 42.6708 38.7749C43.8586 38.9217 44.9228 39.4765 45.6249 40.4259L46.3134 41.3569C46.3912 41.462 46.5443 41.4734 46.6368 41.3809C46.6857 41.332 46.7075 41.2626 46.6982 41.194C46.5012 39.7303 47.2305 38.0725 48.6979 36.9874ZM41.1252 11C41.9536 11.6213 42.1215 12.7966 41.5002 13.625L37.7502 18.625C37.1289 19.4534 35.9536 19.6213 35.1252 19C34.2968 18.3787 34.1289 17.2034 34.7502 16.375L38.5002 11.375C39.1215 10.5466 40.2968 10.3787 41.1252 11ZM26.1744 8.67417C25.4422 9.40641 25.4422 10.5936 26.1744 11.3258L28.6744 13.8258C29.4066 14.5581 30.5938 14.5581 31.326 13.8258C32.0583 13.0936 32.0583 11.9064 31.326 11.1742L28.826 8.67417C28.0938 7.94194 26.9066 7.94194 26.1744 8.67417ZM21.024 18.9003C21.2921 19.9006 22.3202 20.4942 23.3204 20.2262L26.7355 19.3111C27.7357 19.0431 28.3293 18.015 28.0613 17.0147C27.7933 16.0145 26.7652 15.4209 25.7649 15.6889L22.3499 16.604C21.3496 16.872 20.756 17.9001 21.024 18.9003ZM14.7424 17.9341C13.7996 18.3626 13.3828 19.4742 13.8113 20.4169L15.2744 23.6355C15.7029 24.5783 16.8145 24.9951 17.7572 24.5666C18.6999 24.138 19.1168 23.0264 18.6882 22.0837L17.2252 18.8651C16.7967 17.9224 15.6851 17.5056 14.7424 17.9341ZM41.8785 27.8461C42.9129 27.7975 43.7121 26.9195 43.6635 25.8851L43.4975 22.3535C43.4489 21.3191 42.5709 20.52 41.5365 20.5686C40.5021 20.6172 39.703 21.4951 39.7516 22.5295L39.9176 26.0612C39.9662 27.0956 40.8442 27.8947 41.8785 27.8461ZM46.0922 30.1464C46.7766 30.9235 47.9614 30.9987 48.7385 30.3143L52.9337 26.6197C53.7108 25.9353 53.786 24.7505 53.1016 23.9733C52.4172 23.1962 51.2324 23.121 50.4553 23.8054L46.2601 27.5001C45.483 28.1845 45.4078 29.3693 46.0922 30.1464ZM17.3576 27.2369C18.1932 27.8485 18.3749 29.0217 17.7633 29.8574L15.6752 32.7104C15.0636 33.5461 13.8904 33.7277 13.0548 33.1161C12.2191 32.5045 12.0375 31.3313 12.6491 30.4957L14.7372 27.6426C15.3487 26.807 16.5219 26.6254 17.3576 27.2369ZM8.90658 20.4724C7.87265 20.53 7.08118 21.4149 7.13878 22.4488L7.33544 25.9789C7.39303 27.0128 8.27789 27.8043 9.31183 27.7467C10.3458 27.6891 11.1372 26.8042 11.0796 25.7703L10.883 22.2402C10.8254 21.2063 9.94051 20.4148 8.90658 20.4724Z" fill="white"/>
</svg>
