<svg width="60" height="60" viewBox="0 0 60 60" fill="none" xmlns="http://www.w3.org/2000/svg">
<path d="M41.6864 5.03125C35.5113 5.55862 28.496 8.63496 22.2428 13.5571C19.1259 16.0084 15.9895 19.1433 13.5371 22.2587C9.02307 27.9817 6.12118 34.2125 5.1832 40.1308C4.93893 41.6934 4.93893 44.6037 5.1832 45.9417C5.28091 46.4788 5.38838 46.9573 5.42747 46.9964C5.46655 47.0355 5.55448 46.7522 5.63265 46.3616C6.04302 44.0177 7.65518 40.248 9.73633 36.7615C15.8625 26.4777 27.3235 15.149 37.485 9.31859C40.8363 7.39466 44.5003 5.90044 46.601 5.59768C46.8648 5.56839 47.0407 5.50002 46.9919 5.46096C46.6987 5.18751 43.1715 4.90429 41.6864 5.03125Z" fill="white"/>
<path d="M47.1468 9.09678C43.9775 9.75196 40.4133 11.4381 36.0206 14.3383C27.3028 20.1001 17.9298 29.8027 12.9303 38.2334C12.0055 39.804 11.8706 40.0545 11.2156 41.3552C9.78991 44.2072 9 46.7605 9 48.5141C9 50.3448 9.66468 51 11.5142 51C14.8954 51 21.022 48.0324 27.0619 43.475C34.9706 37.5204 42.706 29.109 47.0697 21.7573C47.9945 20.1868 48.1294 19.9363 48.7844 18.6356C50.2101 15.7836 51 13.2303 51 11.4767C51 9.61707 50.3353 8.98116 48.4087 9.00042C47.956 9.01006 47.3876 9.0486 47.1468 9.09678Z" fill="white"/>
<path d="M54.3674 13.6388C53.957 15.984 52.3448 19.7559 50.2637 23.2444C44.1375 33.534 32.6765 44.8692 22.515 50.7029C19.1637 52.6279 15.4997 54.123 13.399 54.4259C13.1352 54.4552 12.9593 54.5236 13.0082 54.5627C13.0472 54.6018 13.5065 54.7191 14.0145 54.8168C15.2945 55.0611 18.2941 55.0611 19.8769 54.8168C27.5274 53.6149 35.5198 49.1785 42.3494 42.3481C49.1889 35.5176 53.6052 27.5341 54.8168 19.8731C55.0611 18.3096 55.0611 15.3977 54.8168 14.0589C54.7191 13.5215 54.6116 13.0427 54.5725 13.0036C54.5335 12.9645 54.4455 13.2479 54.3674 13.6388Z" fill="white"/>
</svg>
