<svg width="60" height="60" viewBox="0 0 60 60" fill="none" xmlns="http://www.w3.org/2000/svg">
<path d="M27.2227 0.175781C25.4063 0.574219 23.8242 2.00391 23.1914 3.84375C23.0274 4.30078 22.957 4.82812 22.9453 5.50781C22.9336 7.10156 23.4375 8.39062 24.4805 9.45703C25.6172 10.6055 26.8828 11.1445 28.4766 11.1445C30.6797 11.1445 32.5547 9.97266 33.4805 8.02734C34.336 6.22266 34.2188 4.23047 33.1758 2.61328C32.3438 1.33594 31.125 0.480469 29.6602 0.164062C28.7227 -0.0351562 28.1719 -0.0351562 27.2227 0.175781Z" fill="white"/>
<path d="M31.1133 11.543C19.3945 12.668 18.8086 12.7383 18.2227 12.9961C17.2734 13.418 17.2969 13.3359 15.1289 21.5508C14.0273 25.6992 13.125 29.2734 13.125 29.4961C13.125 30.5156 14.1328 31.5234 15.1523 31.5234C15.375 31.5234 18.5039 30.4922 22.1016 29.2383C26.9648 27.5391 28.7109 26.8828 28.875 26.6953C29.0625 26.4609 29.0859 26.2969 29.0273 25.5469C28.9336 24.3516 28.6758 23.6484 28.125 23.1562C27.375 22.4766 27.2695 22.4883 23.4258 23.5312C21.5273 24.0469 19.9688 24.4219 19.9453 24.375C19.8984 24.2461 20.9766 20.8359 21.1055 20.6836C21.1758 20.625 21.2109 20.6367 21.2109 20.7305C21.2109 20.8125 21.3516 21.3281 21.5156 21.8672C21.7148 22.5469 21.8672 22.8516 21.9961 22.8516C22.0898 22.8516 22.875 22.6641 23.7305 22.4297L25.2891 21.9961L25.7109 21.4336C26.4727 20.4141 27.7852 19.5117 29.2031 19.0312C30.0352 18.75 30.0586 18.75 30.3516 18.9609C30.8672 19.3477 31.7578 20.5312 32.1797 21.4102C33.2109 23.543 33.1641 25.9687 32.0273 28.1602C31.1719 29.8242 29.2383 31.3711 27.3867 31.875L26.8242 32.0273L26.3672 31.582C26.0273 31.2539 25.125 30.0352 24.7617 29.4258C24.75 29.4141 24.3281 29.5312 23.8242 29.6953L22.9102 30.0117L19.8633 34.7812C18.1992 37.4062 15.8672 41.0508 14.707 42.8906L12.5742 46.2305L10.5117 50.918C8.48438 55.5469 8.20312 56.25 8.20312 56.8477C8.20312 58.418 9.78516 60 11.3672 60C12.4922 60 13.7109 59.2852 14.2031 58.3125C14.3438 58.0547 15.3281 55.8516 16.4062 53.4375L18.3516 49.043L23.8477 41.168C26.8711 36.832 29.3555 33.3047 29.3789 33.3281C29.4023 33.3398 28.125 36.2578 26.5547 39.7969C24.9844 43.3359 23.6367 46.4297 23.5547 46.6875C23.3789 47.25 23.4492 48.3281 23.707 48.8789C23.8242 49.1133 24.7266 50.2969 25.7227 51.5273C27.3516 53.543 27.5977 53.8008 28.207 54.1055C29.8242 54.8906 31.6406 54.3047 32.4727 52.7227C32.6953 52.3125 32.7539 52.0195 32.7539 51.2695C32.7539 50.1562 32.6133 49.875 31.2305 48.1758C30.7383 47.5664 30.3633 47.0156 30.3867 46.9453C30.4219 46.875 32.1211 43.2539 34.1602 38.9062C37.6875 31.418 37.8867 30.9492 37.9805 30.1172C38.0859 29.0508 39.6094 17.7773 39.6445 17.7422C39.6797 17.707 45.1289 24.3164 45.2578 24.5391C45.3047 24.6211 45.8438 27.375 46.4648 30.6562C47.6953 37.1484 47.7539 37.3477 48.5742 37.8281C49.2539 38.2148 50.2969 38.1562 50.918 37.6875C51.375 37.3359 51.7969 36.5859 51.7969 36.0937C51.7969 35.9297 51.2461 32.918 50.5781 29.3789L49.3477 22.957L45.6562 17.1914C43.6289 14.0156 41.8711 11.3203 41.7539 11.2148C41.4375 10.9336 40.7227 10.6641 40.3477 10.6758C40.1719 10.6875 36.0117 11.0742 31.1133 11.543Z" fill="white"/>
<path d="M29.1562 20.0859C28.3477 20.414 27.457 20.9765 27.0703 21.3867L26.8008 21.6797H27.1875C28.125 21.6797 29.3438 22.6992 29.6953 23.7656C29.9648 24.5625 30.1172 25.8984 30.0117 26.3672C29.8594 27.0234 29.5664 27.5039 29.1562 27.75C28.9453 27.8672 28.1016 28.207 27.2812 28.4883C26.4492 28.7695 25.7812 29.0508 25.7812 29.0976C25.7812 29.2617 26.5664 30.3867 26.8711 30.6797C27.1523 30.9492 27.1641 30.9492 27.668 30.75C30.2812 29.707 31.9102 27.3515 31.9102 24.6094C31.9102 23.0039 31.3477 21.4922 30.3164 20.3555L29.8242 19.8047L29.1562 20.0859Z" fill="white"/>
</svg>
