<svg width="60" height="60" viewBox="0 0 60 60" fill="none" xmlns="http://www.w3.org/2000/svg">
<path d="M39.3023 18.3721C39.3023 20.9409 37.2199 23.0233 34.6512 23.0233C32.0824 23.0233 30 20.9409 30 18.3721C30 15.8033 32.0824 13.7209 34.6512 13.7209C37.2199 13.7209 39.3023 15.8033 39.3023 18.3721Z" fill="white"/>
<path d="M55 19.3844C55.0002 18.4502 55.0004 17.7802 54.9069 17.1897C54.5682 15.0514 53.3446 13.2181 51.6195 12.0732C51.4242 11.9435 51.1782 12.1127 51.2095 12.3451C51.4595 14.2045 51.5027 16.4126 51.5101 18.822C51.5113 19.0198 51.5116 19.2541 51.5116 19.5349V19.9319V20.3649V39.6351C51.5116 39.78 51.5116 39.9244 51.5116 40.0681V40.4651C51.5116 40.7463 51.5113 40.9808 51.5101 41.1788C51.5027 43.5879 51.4595 45.7957 51.2095 47.6549C51.1782 47.8873 51.4242 48.0565 51.6195 47.9268C53.3446 46.7819 54.5682 44.9486 54.9069 42.8103C55.0004 42.2198 55.0002 41.5498 55 40.6156L54.9999 40.4651V19.5349L55 19.3844Z" fill="white"/>
<path d="M8.48842 19.5349C8.48842 19.2546 8.48874 19.0207 8.48988 18.8231C8.49034 18.6719 8.49095 18.5216 8.49173 18.3721C8.50348 16.1376 8.55616 14.0882 8.79051 12.3451C8.82175 12.1127 8.5758 11.9435 8.38045 12.0732C6.65538 13.2181 5.43178 15.0514 5.09311 17.1897C4.99959 17.7802 4.99977 18.4502 5.00003 19.3843L5.00005 19.5349V40.4651L5.00003 40.6157C4.99977 41.5498 4.99959 42.2198 5.09311 42.8103C5.43178 44.9486 6.65538 46.7819 8.38045 47.9268C8.5758 48.0565 8.82175 47.8873 8.79051 47.6549C8.55615 45.9118 8.50348 43.8624 8.49173 41.6279C8.49095 41.4784 8.49034 41.328 8.48988 41.1769C8.48874 40.9793 8.48842 40.7454 8.48842 40.4651V40.0997C8.48839 39.9455 8.4884 39.7906 8.48841 39.6351L8.48842 20.5701L8.48841 20.3649C8.4884 20.2094 8.48839 20.0545 8.48842 19.9003V19.5349Z" fill="white"/>
<path fill-rule="evenodd" clip-rule="evenodd" d="M40.2134 5.27099C38.1972 4.99991 35.6336 4.99995 32.4532 5H27.5468C24.3664 4.99995 21.8028 4.99991 19.7866 5.27099C17.6934 5.55242 15.9309 6.1545 14.5311 7.5543C13.1313 8.95411 12.5292 10.7166 12.2478 12.8099C11.9767 14.8261 11.9767 17.3896 11.9768 20.5701V39.4299C11.9767 42.6104 11.9767 45.1739 12.2478 47.1901C12.5292 49.2834 13.1313 51.0459 14.5311 52.4457C15.9309 53.8455 17.6934 54.4476 19.7866 54.729C21.8029 55.0001 24.3664 55 27.5468 55H32.4532C35.6336 55 38.1972 55.0001 40.2134 54.729C42.3066 54.4476 44.0691 53.8455 45.4689 52.4457C46.8687 51.0459 47.4708 49.2834 47.7522 47.1901C48.0233 45.1739 48.0233 42.6104 48.0232 39.4299V20.5701C48.0233 17.3896 48.0233 14.8261 47.7522 12.8099C47.4708 10.7166 46.8687 8.95411 45.4689 7.5543C44.0691 6.1545 42.3066 5.55242 40.2134 5.27099ZM42.0213 41.5755L44.4865 44.1771C44.5336 42.8349 44.5349 41.2385 44.5349 39.3023V20.6977C44.5349 17.3595 44.5312 15.0313 44.295 13.2747C44.0656 11.5682 43.6459 10.6646 43.0023 10.021C42.3586 9.37732 41.455 8.95768 39.7485 8.72825C37.9919 8.49208 35.6637 8.48837 32.3256 8.48837H27.6744C24.3363 8.48837 22.0081 8.49208 20.2515 8.72825C18.545 8.95768 17.6414 9.37732 16.9977 10.021C16.3541 10.6646 15.9345 11.5682 15.705 13.2747C15.4689 15.0313 15.4651 17.3595 15.4651 20.6977V32.2601L15.4734 32.2517C17.7655 29.9 21.3114 30.0611 23.4318 32.5474L30.7826 41.1669C31.3714 41.8573 32.1459 41.8887 32.7402 41.399L33.2512 40.9779C35.941 38.7613 39.6292 39.0511 42.0213 41.5755Z" fill="white"/>
</svg>
