<svg width="60" height="60" viewBox="0 0 60 60" fill="none" xmlns="http://www.w3.org/2000/svg">
<path d="M48.0233 32.0991C48.0233 34.0449 46.4615 35.6223 44.5349 35.6223C42.6083 35.6223 41.0465 34.0449 41.0465 32.0991C41.0465 30.1533 42.6083 28.5759 44.5349 28.5759C46.4615 28.5759 48.0233 30.1533 48.0233 32.0991Z" fill="white"/>
<path fill-rule="evenodd" clip-rule="evenodd" d="M46.1187 7.6828C43.4702 6.85372 41.0465 8.9674 41.0465 11.5501V20.6142C37.8044 21.2442 34.035 21.6087 30 21.6087C25.965 21.6087 22.1956 21.2442 18.9535 20.6142V11.5501C18.9535 8.9674 16.5298 6.85372 13.8813 7.6828C11.4278 8.45083 9.30476 9.42566 7.75707 10.6062C6.23634 11.7661 5 13.3466 5 15.3287V45.1969C5 45.7351 5.09345 46.2489 5.26013 46.7335C5.40969 47.1684 5.61823 47.5797 5.87113 47.964C6.67968 49.1925 7.97288 50.1994 9.47149 51.0226C10.9917 51.8576 12.8476 52.5713 14.9317 53.1535C19.1014 54.3182 24.3417 55 30 55C34.7524 55 39.2041 54.5191 42.9723 53.678C46.7044 52.8449 49.9049 51.628 52.047 50.0655C52.568 49.6855 53.0599 49.2591 53.4872 48.7866C54.3863 47.7926 55 46.595 55 45.1969V15.3287C55 13.3466 53.7637 11.7661 52.2429 10.6062C50.6952 9.42566 48.5722 8.45083 46.1187 7.6828ZM51.5116 20.5665C51.4444 20.6104 51.3768 20.6537 51.3089 20.6964C49.2534 21.9877 46.4303 23.0214 43.175 23.7641C39.3637 24.6336 34.8374 25.1318 30 25.1318C25.1626 25.1318 20.6363 24.6336 16.825 23.7641C13.5697 23.0214 10.7466 21.9877 8.69113 20.6964C8.62321 20.6537 8.55561 20.6104 8.48837 20.5665V43.4731L15.5652 36.7845L18.7558 34.0872C21.0749 32.1268 24.5493 32.2344 26.736 34.347L34.4595 41.8089C35.0982 42.426 36.1383 42.5216 36.8974 42.0063L37.4343 41.6417C40.1414 39.8036 43.7933 40.0107 46.2644 42.1593L51.0173 46.2921C51.4066 45.8228 51.5116 45.4488 51.5116 45.1969V20.5665Z" fill="white"/>
</svg>
