<svg width="60" height="60" viewBox="0 0 60 60" fill="none" xmlns="http://www.w3.org/2000/svg">
<path fill-rule="evenodd" clip-rule="evenodd" d="M27.117 54.8356C14.6678 53.4061 5 42.8321 5 30C5 16.1929 16.1929 5 30 5C43.8071 5 55 16.1929 55 30C55 42.8914 46.7932 41.8312 39.7838 40.9257C35.741 40.4035 32.0965 39.9327 30.6547 42.2199C29.6686 43.7841 30.7345 45.7345 32.042 47.042C33.6757 48.6757 33.6757 51.3243 32.042 52.958C30.7345 54.2655 28.954 55.0465 27.117 54.8356ZM27.7125 17.4994C27.7125 19.5705 26.0336 21.2494 23.9625 21.2494C21.8914 21.2494 20.2125 19.5705 20.2125 17.4994C20.2125 15.4283 21.8914 13.7494 23.9625 13.7494C26.0336 13.7494 27.7125 15.4283 27.7125 17.4994ZM16.25 32.5C18.3211 32.5 20 30.821 20 28.75C20 26.6789 18.3211 25 16.25 25C14.1789 25 12.5 26.6789 12.5 28.75C12.5 30.821 14.1789 32.5 16.25 32.5ZM43.75 32.5C45.8211 32.5 47.5 30.821 47.5 28.75C47.5 26.6789 45.8211 25 43.75 25C41.6789 25 40 26.6789 40 28.75C40 30.821 41.6789 32.5 43.75 32.5ZM36.25 21.25C38.3211 21.25 40 19.571 40 17.5C40 15.4289 38.3211 13.75 36.25 13.75C34.1789 13.75 32.5 15.4289 32.5 17.5C32.5 19.571 34.1789 21.25 36.25 21.25Z" fill="white"/>
</svg>
