<svg width="60" height="60" viewBox="0 0 60 60" fill="none" xmlns="http://www.w3.org/2000/svg">
<path d="M28.1244 5C17.5786 5.01028 12.1222 5.19895 8.66057 8.66057C5.19895 12.1222 5.01028 17.5786 5 28.1244H17.2838C16.4064 27.0284 15.7508 25.7357 15.3933 24.3057C14.0476 18.9232 18.9232 14.0476 24.3057 15.3933C25.7357 15.7508 27.0284 16.4064 28.1244 17.2838V5Z" fill="white"/>
<path d="M5 31.8744C5.01028 42.4202 5.19895 47.8766 8.66057 51.3382C12.1222 54.7999 17.5786 54.9885 28.1244 54.9988V35.3085C26.1753 39.2016 22.1495 41.8744 17.4994 41.8744C16.4639 41.8744 15.6244 41.0349 15.6244 39.9994C15.6244 38.9639 16.4639 38.1244 17.4994 38.1244C21.3414 38.1244 24.5605 35.4578 25.407 31.8744H5Z" fill="white"/>
<path d="M31.8744 54.9988C42.4202 54.9885 47.8766 54.7999 51.3382 51.3382C54.7999 47.8766 54.9885 42.4202 54.9988 31.8744H34.5918C35.4383 35.4578 38.6574 38.1244 42.4994 38.1244C43.5349 38.1244 44.3744 38.9639 44.3744 39.9994C44.3744 41.0349 43.5349 41.8744 42.4994 41.8744C37.8493 41.8744 33.8235 39.2016 31.8744 35.3085V54.9988Z" fill="white"/>
<path d="M54.9988 28.1244C54.9885 17.5786 54.7999 12.1222 51.3382 8.66057C47.8766 5.19895 42.4202 5.01028 31.8744 5V17.2838C32.9704 16.4064 34.2632 15.7508 35.6931 15.3933C41.0757 14.0476 45.9512 18.9232 44.6055 24.3057C44.248 25.7357 43.5924 27.0284 42.715 28.1244H54.9988Z" fill="white"/>
<path d="M23.3962 19.0313C26.175 19.726 28.1244 22.2228 28.1244 25.0871V28.1244H25.0871C22.2228 28.1244 19.726 26.175 19.0313 23.3962C18.3723 20.7601 20.7601 18.3723 23.3962 19.0313Z" fill="white"/>
<path d="M31.8744 25.0871V28.1244H34.9117C37.776 28.1244 40.2728 26.175 40.9675 23.3962C41.6265 20.7601 39.2387 18.3723 36.6026 19.0313C33.8238 19.726 31.8744 22.2228 31.8744 25.0871Z" fill="white"/>
</svg>
