<svg width="60" height="60" viewBox="0 0 60 60" fill="none" xmlns="http://www.w3.org/2000/svg">
<path d="M20 5H40C42.6522 5 45.1957 6.05357 47.0711 7.92893C48.9464 9.8043 50 12.3478 50 15V45C50 47.6522 48.9464 50.1957 47.0711 52.0711C45.1957 53.9464 42.6522 55 40 55H20C17.3478 55 14.8043 53.9464 12.9289 52.0711C11.0536 50.1957 10 47.6522 10 45V15C10 12.3478 11.0536 9.8043 12.9289 7.92893C14.8043 6.05357 17.3478 5 20 5ZM30 47.5C33.3152 47.5 36.4946 46.183 38.8388 43.8388C41.183 41.4946 42.5 38.3152 42.5 35C42.5 31.6848 41.183 28.5054 38.8388 26.1612C36.4946 23.817 33.3152 22.5 30 22.5C26.6848 22.5 23.5054 23.817 21.1612 26.1612C18.817 28.5054 17.5 31.6848 17.5 35C17.5 38.3152 18.817 41.4946 21.1612 43.8388C23.5054 46.183 26.6848 47.5 30 47.5ZM20 12.5C19.337 12.5 18.7011 12.7634 18.2322 13.2322C17.7634 13.7011 17.5 14.337 17.5 15V17.5C17.5 18.163 17.7634 18.7989 18.2322 19.2678C18.7011 19.7366 19.337 20 20 20H30C30.663 20 31.2989 19.7366 31.7678 19.2678C32.2366 18.7989 32.5 18.163 32.5 17.5V15C32.5 14.337 32.2366 13.7011 31.7678 13.2322C31.2989 12.7634 30.663 12.5 30 12.5H20ZM37.5 12.5C36.837 12.5 36.2011 12.7634 35.7322 13.2322C35.2634 13.7011 35 14.337 35 15V17.5C35 18.163 35.2634 18.7989 35.7322 19.2678C36.2011 19.7366 36.837 20 37.5 20H40C40.663 20 41.2989 19.7366 41.7678 19.2678C42.2366 18.7989 42.5 18.163 42.5 17.5V15C42.5 14.337 42.2366 13.7011 41.7678 13.2322C41.2989 12.7634 40.663 12.5 40 12.5H37.5ZM30 42.5C28.0109 42.5 26.1032 41.7098 24.6967 40.3033C23.2902 38.8968 22.5 36.9891 22.5 35C22.5 33.0109 23.2902 31.1032 24.6967 29.6967C26.1032 28.2902 28.0109 27.5 30 27.5C31.9891 27.5 33.8968 28.2902 35.3033 29.6967C36.7098 31.1032 37.5 33.0109 37.5 35C37.5 36.9891 36.7098 38.8968 35.3033 40.3033C33.8968 41.7098 31.9891 42.5 30 42.5ZM30 37.5C30.663 37.5 31.2989 37.2366 31.7678 36.7678C32.2366 36.2989 32.5 35.663 32.5 35C32.5 34.337 32.2366 33.7011 31.7678 33.2322C31.2989 32.7634 30.663 32.5 30 32.5C29.337 32.5 28.7011 32.7634 28.2322 33.2322C27.7634 33.7011 27.5 34.337 27.5 35C27.5 35.663 27.7634 36.2989 28.2322 36.7678C28.7011 37.2366 29.337 37.5 30 37.5Z" fill="white"/>
</svg>
