<svg width="60" height="60" viewBox="0 0 60 60" fill="none" xmlns="http://www.w3.org/2000/svg">
<path fill-rule="evenodd" clip-rule="evenodd" d="M29.3753 16.0159C25.6744 16.0159 25.3055 16.4062 23.3902 16.4062C21.7942 16.4062 17.0061 12.5 14.6121 12.5C12.2181 12.5 9.4251 13.9062 9.4251 17.9688V22.6562C9.42993 23.8867 9.87703 27.6585 11.6269 26.6506C9.55807 29.0956 9.34909 31.9464 9.3775 34.7066C8.82031 34.8676 8.2518 35.0489 7.70008 35.2376C5.99036 35.8221 4.17713 36.5678 3.35799 37.0968C2.4881 37.6586 2.23835 38.8192 2.80015 39.6891C3.36195 40.559 4.52257 40.8088 5.39246 40.2469C5.783 39.9947 7.19559 39.3732 8.91329 38.7859C9.10311 38.721 9.29327 38.6577 9.48245 38.5965C9.59813 39.6811 9.8852 40.6709 10.312 41.5729L10.253 41.6039C9.2287 42.1452 8.27824 42.7667 7.67222 43.1629C7.56736 43.2315 7.47281 43.2933 7.38997 43.3468C6.52008 43.9086 6.27033 45.0692 6.83213 45.9391C7.39393 46.809 8.55455 47.0588 9.42444 46.4969C9.52725 46.4305 9.63681 46.359 9.75244 46.2836C10.3658 45.8832 11.15 45.3713 12.005 44.9195C12.2055 44.8136 12.3984 44.7174 12.5829 44.631C16.9087 48.6869 24.6748 50 29.3752 50C34.0756 50 41.8417 48.687 46.1675 44.631C46.352 44.7174 46.5448 44.8136 46.7453 44.9195C47.6003 45.3713 48.3844 45.8832 48.9977 46.2835C49.1134 46.359 49.223 46.4305 49.3258 46.4969C50.1957 47.0588 51.3563 46.809 51.9181 45.9391C52.4799 45.0692 52.2302 43.9086 51.3603 43.3468C51.2774 43.2933 51.1829 43.2315 51.078 43.1629C50.472 42.7666 49.5215 42.1452 48.4973 41.6039L48.4384 41.573C48.8653 40.6709 49.1524 39.6809 49.268 38.5962C49.4575 38.6575 49.648 38.7209 49.8381 38.7859C51.5558 39.3732 52.9684 39.9947 53.3589 40.2469C54.2288 40.8088 55.3894 40.559 55.9512 39.6891C56.513 38.8192 56.2633 37.6586 55.3934 37.0968C54.5743 36.5678 52.761 35.8221 51.0513 35.2376C50.4993 35.0488 49.9304 34.8674 49.3729 34.7063C49.4013 31.9462 49.1923 29.0955 47.1236 26.6506C48.8734 27.6585 49.3205 23.8867 49.3254 22.6562V17.969C49.3254 13.9065 46.5324 12.5003 44.1384 12.5003C41.7444 12.5003 36.9563 16.4062 35.3603 16.4062C33.4451 16.4062 33.0762 16.0159 29.3753 16.0159ZM27.6862 39.0009C28.1928 38.8284 28.7905 38.75 29.3752 38.75C29.96 38.75 30.5576 38.8284 31.0642 39.0009C31.3127 39.0856 31.6167 39.2189 31.8844 39.4344C32.1531 39.6508 32.5002 40.0515 32.5002 40.625C32.5002 41.1985 32.1531 41.5992 31.8844 41.8156C31.6167 42.0311 31.3127 42.1644 31.0642 42.2491C30.5576 42.4216 29.96 42.5 29.3752 42.5C28.7905 42.5 28.1928 42.4216 27.6862 42.2491C27.4378 42.1644 27.1338 42.0311 26.8661 41.8156C26.5974 41.5992 26.2502 41.1985 26.2502 40.625C26.2502 40.0515 26.5974 39.6508 26.8661 39.4344C27.1338 39.2189 27.4378 39.0856 27.6862 39.0009ZM34.8003 31.2512C35.1414 30.6803 35.8149 30 36.8252 30C37.8355 30 38.509 30.6803 38.8501 31.2512C39.2058 31.8468 39.3752 32.5686 39.3752 33.2812C39.3752 33.9939 39.2058 34.7157 38.8501 35.3113C38.509 35.8822 37.8355 36.5625 36.8252 36.5625C35.8149 36.5625 35.1414 35.8822 34.8003 35.3113C34.4446 34.7157 34.2752 33.9939 34.2752 33.2812C34.2752 32.5686 34.4446 31.8468 34.8003 31.2512ZM19.9004 31.2512C20.2415 30.6803 20.915 30 21.9253 30C22.9355 30 23.6091 30.6803 23.9501 31.2512C24.3059 31.8468 24.4753 32.5686 24.4753 33.2812C24.4753 33.9939 24.3059 34.7157 23.9501 35.3113C23.6091 35.8822 22.9355 36.5625 21.9253 36.5625C20.915 36.5625 20.2415 35.8822 19.9004 35.3113C19.5447 34.7157 19.3752 33.9939 19.3752 33.2812C19.3752 32.5686 19.5447 31.8468 19.9004 31.2512Z" fill="white"/>
</svg>
