<svg width="70" height="80" viewBox="0 0 70 80" fill="none" xmlns="http://www.w3.org/2000/svg">
<path fill-rule="evenodd" clip-rule="evenodd" d="M35.4007 79.0028C39.2787 77.1758 70 61.8444 70 34.6446C70 15.5109 54.33 0 35 0C15.67 0 0 15.5109 0 34.6446C0 61.8444 30.7213 77.1758 34.5993 79.0028C34.8546 79.1231 35.1454 79.1231 35.4007 79.0028ZM35.0007 49.496C43.2849 49.496 50.0007 42.8475 50.0007 34.6462C50.0007 26.4448 43.2849 19.7963 35.0007 19.7963C26.7164 19.7963 20.0007 26.4448 20.0007 34.6462C20.0007 42.8475 26.7164 49.496 35.0007 49.496Z" fill="#BB1843"/>
<ellipse cx="35.0007" cy="34.6463" rx="15" ry="14.8499" fill="white"/>
</svg>
