<svg width="331" height="331" viewBox="0 0 331 331" fill="none" xmlns="http://www.w3.org/2000/svg">
<path opacity="0.6" d="M161.691 285.448C95.7409 283.103 44.1642 227.785 46.4932 161.898C48.8221 96.0311 104.177 44.5122 170.127 46.8567C236.074 49.2012 287.631 104.519 285.302 170.383C282.969 236.27 227.638 287.792 161.691 285.448ZM283.216 103.205C278.212 93.7568 285.958 79.6061 300.708 70.2315C286.538 50.1209 268.003 33.2946 246.403 21.1473C238.649 36.8499 225.429 46.0339 215.497 42.0271C205.568 37.997 202.429 22.1742 207.777 5.47165C196.099 2.39133 183.918 0.551849 171.347 0.107025C158.779 -0.341125 146.498 0.625427 134.657 2.8696C138.791 19.8865 134.567 35.4686 124.378 38.7863C114.189 42.0773 101.648 31.9736 95.0211 15.7393C72.5946 26.318 52.9169 41.8098 37.3672 60.8635C51.4209 71.2382 58.1479 85.9039 52.4904 94.9742C46.8297 104.091 30.7069 104.412 15.2206 96.2619C6.22802 115.693 0.900467 137.192 0.0974975 159.938C0.00420641 162.62 -0.0157878 165.286 0.0108668 167.948C17.4396 166.824 32.003 173.711 33.489 184.34C34.975 194.945 22.8339 205.597 5.74492 209.327C12.282 233.494 24.1865 255.534 40.1027 274.036C52.7503 261.973 68.3065 257.855 76.2429 265.036C84.176 272.213 81.7305 288.153 71.0487 302.03C90.873 315.853 113.893 325.458 138.845 329.518C140.787 312.11 150.07 298.933 160.758 299.314C171.443 299.695 179.796 313.498 180.509 331C205.684 328.749 229.324 320.803 250.074 308.398C240.395 293.822 239.056 277.752 247.502 271.15C255.922 264.551 271.175 269.742 282.913 282.699C300.122 265.401 313.526 244.237 321.775 220.591C304.969 215.661 293.635 204.173 295.867 193.698C298.073 183.199 313.109 177.366 330.418 179.728C330.631 177.072 330.798 174.393 330.894 171.707C331.697 148.958 327.902 127.138 320.299 107.115C304.276 114.168 288.22 112.68 283.216 103.205Z" fill="#E6EBF2"/>
</svg>
