<svg width="620" height="132" viewBox="0 0 620 132" fill="none" xmlns="http://www.w3.org/2000/svg">
<rect width="620" height="132" fill="#CF1F45"/>
<g clip-path="url(#clip0_46_1135)">
<path d="M203.681 55.0001V58.853H215.016V77.5672H226.35V58.853H237.685V55.0001H203.681Z" fill="white"/>
<path d="M432.924 55.0001L423.289 63.8068L413.655 55.0001H402.037V77.5672H413.655V60.229L423.289 69.0357L432.924 60.229V77.5672H444.542V55.0001H432.924Z" fill="white"/>
<path d="M529.79 55.0001V73.9895H522.485V55.0001H511.116V73.9895H503.811V55.0001H492.714V77.5672H540.886V55.0001H529.79Z" fill="white"/>
<path d="M322.075 55.0001L314.194 77.5672H325.735L332.209 58.853H345.158V77.5672H356.699V55.0001H322.075Z" fill="white"/>
<path d="M465.109 58.853H478.058V70.1366H461.45L465.109 58.853ZM489.6 55.0001H454.976L447.376 77.5672H458.917L460.325 73.7143H478.339V77.5672H489.88V55.0001H489.6Z" fill="white"/>
<path d="M277.356 55.0001V77.5672H311.36V73.9895H288.691V67.6597H307.489V64.082H288.691V58.853H311.36V55.0001H277.356Z" fill="white"/>
<path d="M90.0244 58.853H104.007C104.544 60.5043 104.813 62.4307 104.813 64.3572C104.813 66.2837 104.544 68.2101 104.007 70.1366H90.0244V58.853ZM90.0244 73.9895H113.418C115.031 71.2374 115.838 67.9349 115.838 64.6324C115.838 61.3299 115.031 57.7522 113.418 55.0001H79V77.5672H90.0244V73.9895Z" fill="white"/>
<path d="M384.27 73.9895H370.289V62.4307H384.27C384.808 64.082 385.078 66.0084 385.078 68.2101C385.344 70.1366 384.808 72.063 384.27 73.9895ZM396.37 68.2101C396.37 64.6324 395.562 61.6051 393.95 58.853H370.558V55.0001H359.532V77.5672H393.95C395.293 74.8151 396.37 71.7878 396.37 68.2101Z" fill="white"/>
<path d="M131.901 58.853H147.946C149.072 61.0547 149.635 63.8068 149.635 66.2837C149.635 69.0357 149.072 71.5126 147.946 73.7143H131.901C130.775 71.5126 130.212 68.7605 130.212 66.2837C130.212 63.5316 130.775 61.0547 131.901 58.853ZM157.235 77.5672C159.769 74.5399 161.176 70.4118 161.176 66.2837C161.176 62.1555 159.769 58.0274 157.235 55.0001H122.612C120.079 58.0274 118.671 62.1555 118.671 66.2837C118.671 70.4118 120.079 74.5399 122.612 77.5672H157.235Z" fill="white"/>
<path d="M198.014 77.5672V73.9895H177.003C175.897 71.7878 175.344 69.0357 175.344 66.5589C175.344 63.8068 175.897 61.3299 177.003 59.1282H198.014V55.0001H167.604C165.392 58.0274 164.01 62.1555 164.01 66.2837C164.01 70.4118 165.392 74.5399 167.88 77.5672H198.014Z" fill="white"/>
<path d="M271.689 77.5672V73.9895H250.848C249.751 71.7878 249.202 69.0357 249.202 66.5589C249.202 63.8068 249.751 61.3299 250.848 59.1282H271.689V55.0001H241.524C239.056 58.0274 237.685 62.1555 237.685 66.2837C237.685 70.4118 239.056 74.5399 241.524 77.5672H271.689Z" fill="white"/>
</g>
<defs>
<clipPath id="clip0_46_1135">
<rect width="461.886" height="22.5672" fill="white" transform="translate(79 55.0001)"/>
</clipPath>
</defs>
</svg>
